<?xml version="1.0" encoding="UTF-8" standalone="no"?>
<!-- Created with Inkscape (http://www.inkscape.org/) -->

<svg
   version="1.1"
   id="svg2"
   xml:space="preserve"
   width="200"
   height="200"
   viewBox="0 0 200 200"
   xmlns="http://www.w3.org/2000/svg"
   xmlns:svg="http://www.w3.org/2000/svg"><defs
     id="defs6" /><g
     id="g6282"
     transform="matrix(0.44097065,0,0,0.44097065,-5.332981,28.001815)"><path
       d="M 465.63866,314.45344 V 12.090678 H 12.093746 V 314.45344 H 465.63866"
       style="fill:#254aa5;fill-opacity:1;fill-rule:nonzero;stroke:none;stroke-width:0.133333"
       id="path14" /><path
       d="m 144.28933,165.25734 9.86133,-7.13733 -12.192,-0.024 -3.77333,-11.596 -3.76133,11.596 h -12.19227 l 9.8672,7.16666 -3.76293,11.59734 9.86133,-7.17067 9.86533,7.16 -3.77333,-11.592"
       style="fill:#fff200;fill-opacity:1;fill-rule:nonzero;stroke:none;stroke-width:0.133333"
       id="path16" /><path
       d="m 157.84666,215.65081 9.86134,-7.13907 -12.192,-0.0239 -3.77334,-11.59853 -3.76133,11.59853 h -12.192 l 9.86667,7.16814 -3.76267,11.59586 9.85867,-7.17026 9.868,7.16093 -3.77334,-11.59173"
       style="fill:#fff200;fill-opacity:1;fill-rule:nonzero;stroke:none;stroke-width:0.133333"
       id="path18" /><path
       d="m 194.864,252.55187 9.86266,-7.13693 -12.19333,-0.0256 L 188.76,233.79201 185,245.38934 h -12.19334 l 9.868,7.16667 -3.76266,11.59853 9.86133,-7.17187 9.86533,7.16133 -3.77466,-11.59213"
       style="fill:#fff200;fill-opacity:1;fill-rule:nonzero;stroke:none;stroke-width:0.133333"
       id="path20" /><path
       d="m 244.97199,64.445343 9.85867,-7.138666 -12.192,-0.02267 -3.772,-11.597333 -3.76267,11.597333 h -12.192 l 9.86667,7.166667 -3.76,11.595999 9.85867,-7.169333 9.868,7.158667 -3.77334,-11.590667"
       style="fill:#fff200;fill-opacity:1;fill-rule:nonzero;stroke:none;stroke-width:0.133333"
       id="path22" /><path
       d="m 194.63333,78.002676 9.86133,-7.138666 -12.192,-0.02267 -3.77466,-11.59733 -3.76267,11.597333 H 172.576 l 9.86666,7.166667 -3.76266,11.595999 9.85866,-7.169333 9.868,7.161333 -3.77333,-11.593333"
       style="fill:#fff200;fill-opacity:1;fill-rule:nonzero;stroke:none;stroke-width:0.133333"
       id="path24" /><path
       d="m 157.75466,114.91868 9.86,-7.13467 -12.19333,-0.0267 -3.77333,-11.595998 -3.76,11.595998 h -12.19334 l 9.868,7.16667 -3.76,11.596 9.85867,-7.168 9.86667,7.16133 -3.77334,-11.59466"
       style="fill:#fff200;fill-opacity:1;fill-rule:nonzero;stroke:none;stroke-width:0.133333"
       id="path26" /><path
       d="m 345.78399,165.12534 9.86267,-7.136 -12.19467,-0.0253 -3.77333,-11.59734 -3.76,11.59734 h -12.192 l 9.868,7.16933 -3.764,11.59467 9.86133,-7.172 9.864,7.16266 -3.772,-11.59333"
       style="fill:#fff200;fill-opacity:1;fill-rule:nonzero;stroke:none;stroke-width:0.133333"
       id="path28" /><path
       d="m 244.97199,266.01747 9.85867,-7.13333 -12.19067,-0.0281 -3.77333,-11.5948 -3.76267,11.5948 h -12.192 l 9.86667,7.16666 -3.76,11.59853 9.85867,-7.17186 9.868,7.16133 -3.77334,-11.5932"
       style="fill:#fff200;fill-opacity:1;fill-rule:nonzero;stroke:none;stroke-width:0.133333"
       id="path30" /><path
       d="m 332.38933,215.65081 9.86133,-7.13907 -12.19467,-0.0239 -3.772,-11.59853 -3.76,11.59853 h -12.19333 l 9.86667,7.16814 -3.76267,11.59586 9.86133,-7.17026 9.86667,7.16093 -3.77333,-11.59173"
       style="fill:#fff200;fill-opacity:1;fill-rule:nonzero;stroke:none;stroke-width:0.133333"
       id="path32" /><path
       d="m 332.29599,114.91868 9.86133,-7.13467 -12.19066,-0.0267 -3.77467,-11.595998 -3.76266,11.595998 h -12.19334 l 9.86934,7.16667 -3.76134,11.596 9.85867,-7.168 9.86666,7.16133 -3.77333,-11.59466"
       style="fill:#fff200;fill-opacity:1;fill-rule:nonzero;stroke:none;stroke-width:0.133333"
       id="path34" /><path
       d="m 295.53066,252.55187 9.86267,-7.13693 -12.192,-0.0256 -3.77334,-11.59733 -3.76133,11.59733 h -12.19333 l 9.86666,7.16667 -3.76133,11.59853 9.86267,-7.17187 9.864,7.16133 -3.77467,-11.59213"
       style="fill:#fff200;fill-opacity:1;fill-rule:nonzero;stroke:none;stroke-width:0.133333"
       id="path36" /><path
       d="m 295.29999,78.002676 9.86267,-7.138666 -12.19467,-0.02267 -3.772,-11.597333 -3.76266,11.597333 h -12.192 l 9.868,7.166667 -3.764,11.595999 9.86133,-7.169333 9.86667,7.161333 -3.77334,-11.593333"
       style="fill:#fff200;fill-opacity:1;fill-rule:nonzero;stroke:none;stroke-width:0.133333"
       id="path38" /></g></svg>
